# xmcd
#
# Track frame offsets:
#	150
#	14721
#	34844
#	39959
#	67154
#	92530
#	93860
#	103150
#	128663
#	152665
#	157593
#	188057
#
# Disc length: 2727 seconds
#
# Revision: 1
# Processed by: cddbd v1.5.2PL0 Copyright (c) Steve Scherf et al.
# Submitted via: audiograbber 1.83.01
#
DISCID=8c0aa50c
DTITLE=Old Friends - Loop Dreams
DYEAR=2007
DGENRE=
TTITLE0=Regal - Polar Ice
TTITLE1=Regal - Keep On
TTITLE2=Regal - Rio 2 Kingston
TTITLE3=Regal - The Village Calling
TTITLE4=Regal - Searchin' For Peace
TTITLE5=Regal - Munich Doppler
TTITLE6=Regal - Capt Ahab
TTITLE7=Regal - The Mack
TTITLE8=Regal - Shock Ya' Mind (Take It On Back)
TTITLE9=Regal - Starlight
TTITLE10=Regal - Old Friends
TTITLE11=Regal - Loop Dreams
EXTD=
EXTT0=
EXTT1=
EXTT2=
EXTT3=
EXTT4=
EXTT5=
EXTT6=
EXTT7=
EXTT8=
EXTT9=
EXTT10=
EXTT11=
PLAYORDER=
